<?xml version="1.0" standalone="no"?>
<!DOCTYPE svg PUBLIC "-//W3C//DTD SVG 20010904//EN"
 "http://www.w3.org/TR/2001/REC-SVG-20010904/DTD/svg10.dtd">
<svg version="1.0" xmlns="http://www.w3.org/2000/svg"
 width="1000.000000pt" height="1000.000000pt" viewBox="0 0 1000.000000 1000.000000"
 preserveAspectRatio="xMidYMid meet">

<g transform="translate(0.000000,1000.000000) scale(0.100000,-0.100000)"
fill="#000000" stroke="none">
<path d="M6815 4705 c-33 -8 -66 -14 -72 -14 -7 -1 -13 -7 -13 -15 0 -10 22
-15 93 -18 77 -3 103 -9 160 -35 233 -110 301 -365 168 -639 -92 -191 -274
-361 -584 -547 -95 -56 -115 -72 -102 -80 44 -24 482 166 669 290 351 234 482
523 356 791 -59 127 -204 233 -365 267 -86 18 -230 18 -310 0z"/>
<path d="M3938 4635 c-491 -69 -785 -172 -813 -286 -21 -86 211 -197 553 -263
338 -66 579 -87 1059 -93 489 -6 720 7 1113 63 279 40 680 142 680 174 0 4
-41 31 -91 59 l-91 52 -177 -35 c-180 -36 -467 -75 -716 -98 -219 -20 -958
-17 -1155 5 -407 45 -618 90 -702 149 -55 38 -23 94 82 142 72 33 265 87 413
117 217 43 120 52 -155 14z"/>
<path d="M3825 3809 c-344 -73 -474 -170 -367 -276 126 -127 560 -229 1117
-264 545 -34 1241 46 1583 181 95 38 101 26 -62 120 l-109 62 -121 -26 c-323
-70 -489 -87 -904 -93 -428 -7 -646 10 -874 67 -222 55 -288 127 -196 212 23
21 37 38 32 37 -5 0 -49 -9 -99 -20z"/>
<path d="M4006 3004 c-196 -54 -289 -124 -271 -204 26 -118 353 -236 780 -281
152 -16 554 -16 705 0 254 28 485 83 639 152 55 25 63 31 50 43 -26 24 -278
166 -294 166 -9 0 -61 -9 -115 -20 -460 -94 -1176 -66 -1350 52 -50 35 -58 53
-38 88 16 28 16 30 0 29 -9 0 -57 -11 -106 -25z"/>
<path d="M3250 2781 c-531 -112 -831 -285 -781 -451 43 -144 397 -282 934
-365 701 -108 1466 -132 2157 -69 717 65 1226 196 1423 365 102 88 115 191 34
268 l-25 23 -15 -29 c-114 -220 -661 -376 -1552 -443 -232 -18 -771 -24 -965
-11 -703 47 -1302 177 -1448 315 -45 42 -55 69 -41 118 26 99 225 225 437 279
28 7 52 16 52 21 0 15 -73 7 -210 -21z"/>
<path d="M7315 2173 c-268 -234 -814 -415 -1515 -502 -749 -93 -1564 -88
-2265 14 -138 20 -172 22 -183 12 -10 -11 11 -19 115 -45 708 -174 1731 -205
2583 -77 426 64 804 178 1047 316 144 83 273 230 261 299 -3 16 -9 13 -43 -17z"/>
</g>
</svg>
